<svg width="578" height="836" viewBox="0 0 578 836" fill="none" xmlns="http://www.w3.org/2000/svg">
<path fill-rule="evenodd" clip-rule="evenodd" d="M240.73 0.701688C230.25 2.80769 219.626 11.5637 214.675 22.1747L211.875 28.1747L211.572 67.4177C211.28 105.115 211.191 106.703 209.322 107.704C207.498 108.68 207.375 109.942 207.375 127.72C207.375 145.457 207.505 146.806 209.375 148.407C211.208 149.976 211.375 151.357 211.375 164.897C211.375 173.025 211.003 179.675 210.549 179.675C210.095 179.675 208.633 178.511 207.299 177.088C204.203 173.784 194.105 168.164 188.708 166.741C183.355 165.33 180.324 166.635 177.589 171.528C176.467 173.534 171.698 184.92 166.99 196.832C156.605 223.105 143.773 250.887 135.428 265.163C126.031 281.241 124.98 285.193 121.867 316.175C118.785 346.841 118.024 349.9 106.7 377.175C92.5312 411.305 91.5692 418.49 97.7302 444.175C99.7082 452.425 102.933 466.825 104.896 476.175C110.427 502.526 116.81 527.646 122.428 545.175L127.556 561.175L127.079 572.675C126.116 595.884 116.817 621.31 88.3402 678.602C65.7882 723.975 45.1792 760.99 12.9942 813.932C6.05425 825.349 0.375244 834.939 0.375244 835.243C0.375244 835.547 2.05725 835.656 4.11325 835.485C7.76825 835.182 8.04424 834.857 16.7152 820.675C47.0772 771.011 66.9702 735.546 89.3562 691.175C111.387 647.507 118.147 632.465 124.942 611.983C135.724 579.483 136.531 568.138 129.531 547.506C124.074 531.422 116.035 498.382 101.836 433.675C98.5262 418.592 100.201 409.761 111.413 383.175C123.672 354.105 124.25 351.869 127.876 319.469C130.717 294.08 132.231 284.675 133.478 284.675C133.971 284.675 134.375 285.334 134.375 286.14C134.375 288.75 140.352 294.501 144.848 296.218C151.016 298.573 152.717 297.503 147.116 294.791C144.557 293.553 141.093 290.979 139.419 289.072C134.577 283.557 135.112 280.982 145.186 261.348C150.032 251.903 155.873 240.012 158.167 234.925C161.616 227.272 162.728 225.665 164.605 225.616C166.537 225.566 166.641 225.397 165.303 224.483C163.925 223.542 164.68 220.983 171.407 203.792C183.414 173.105 183.613 172.677 185.875 172.686C192.152 172.712 206.174 182.569 211.302 190.561C221.76 206.859 224.006 237.392 216.862 266.157C213.206 280.876 210.538 285.716 204.131 289.249C192.055 295.907 174.774 291.11 159.625 276.894C154.694 272.267 154.197 272.75 158.203 278.275C165.606 288.483 177.341 294.927 189.594 295.514C194.804 295.764 198.786 295.382 201.844 294.34C204.336 293.491 206.375 293.142 206.375 293.564C206.375 295.203 200.073 303.733 196.629 306.757C194.636 308.506 191.176 310.809 188.94 311.874L184.875 313.809L189.106 313.34C191.432 313.082 195.595 311.481 198.356 309.782C201.116 308.083 203.375 307.182 203.375 307.779C203.375 308.376 201.802 322.901 199.88 340.057C196.401 371.114 196.03 381.639 198.285 385.268C199.432 387.113 199.455 387.11 198.996 385.175C198.735 384.075 198.218 381.231 197.848 378.854C197.189 374.623 197.22 374.561 199.337 375.854C200.525 376.581 201.753 378.422 202.066 379.946C202.378 381.47 203.043 382.97 203.544 383.28C204.064 383.601 204.171 382.71 203.794 381.209C203.171 378.725 203.296 378.615 206.004 379.264C207.583 379.642 209.427 380.385 210.103 380.917C211.055 381.666 211.391 405.081 211.603 485.529L211.875 589.175L214.686 594.513C218.452 601.663 224.726 607.738 231.937 611.216C237.761 614.025 238.308 614.093 260.375 614.752C275.009 615.189 285.322 615.978 289.875 617.011C309.313 621.417 353.605 624.083 383.55 622.649C403.543 621.692 418.981 619.794 432.088 616.681C436.911 615.535 443.823 614.696 448.204 614.725L455.875 614.775L445.875 624.322C420.253 648.785 397.235 667.066 373.875 681.508C347.427 697.858 343.516 700.609 340.566 704.935C337.484 709.455 336.366 712.318 322.509 751.175C317.606 764.925 308.659 789.563 302.627 805.925L291.66 835.675H295.039C297.597 835.675 298.647 835.129 299.36 833.425C301.319 828.745 317.094 785.737 330.446 748.675C346.741 703.442 344.256 707.123 367.875 693.23C397.814 675.621 421.801 656.849 452.375 627.1C462.833 616.925 465.733 614.658 470.123 613.227C482.301 609.256 491.962 598.722 495.104 585.989L496.689 579.569L516.782 560.708C545.993 533.287 564.847 513.869 566.831 509.16C569.177 503.592 569.901 493.069 568.386 486.565C566.764 479.599 561.454 469.44 556.288 463.418C550.315 456.455 544.689 453.502 536.244 452.898L529.264 452.398L533.255 450.131C547.29 442.159 564.561 428.901 568.711 422.912C581.397 404.606 578.263 381.515 560.768 364.384C555.848 359.567 545.641 353.675 542.215 353.675C541.203 353.675 540.38 353.562 540.387 353.425C540.393 353.288 545.231 348.219 551.137 342.162C568.522 324.332 574.793 313.089 574.846 299.654C574.871 293.138 574.436 291.24 571.586 285.453C567.15 276.44 558.747 268.872 546.875 263.195C536.8 258.377 530.753 256.675 523.711 256.675H518.933L524.966 250.425C539.412 235.461 559.468 211.845 566.399 201.64C568.681 198.279 571.97 192.525 573.709 188.853C581.101 173.239 575.756 157.805 561.004 152.171C553.53 149.317 541.84 150.418 532.253 154.879C523.42 158.99 514.689 164.735 505.752 172.316C502.278 175.263 499.197 177.675 498.905 177.675C498.614 177.675 498.375 167.802 498.375 155.734C498.375 142.185 497.993 133.557 497.375 133.175C496.746 132.786 496.336 120.798 496.269 100.866C496.211 83.4357 495.874 59.7247 495.519 48.1747C494.888 27.6067 494.815 27.0527 491.956 21.2287C488.1 13.3767 481.795 7.24269 473.576 3.34869L466.875 0.174695L355.875 0.0216949C294.825 -0.0623051 243.01 0.243688 240.73 0.701688ZM474.201 6.74569C480.837 10.0617 485.106 14.4977 488.535 21.6437C490.284 25.2867 490.796 28.5257 491.147 38.1747C491.497 47.7727 491.334 49.9347 490.331 48.9757C489.64 48.3157 488.742 43.7257 488.33 38.7567C487.434 27.9357 484.955 22.1717 478.359 15.5677C473.099 10.3027 465.379 6.95769 456.293 6.00869C447.874 5.12869 450.042 3.67469 459.774 3.67469C467.017 3.67469 468.826 4.05969 474.201 6.74569ZM255.323 5.6217C257.008 6.6877 255.079 7.2317 246.703 8.0547C239.832 8.7287 232.758 12.4507 227.496 18.1597C221.723 24.4217 219.687 29.5197 218.857 39.7887C217.9 51.6287 216.723 52.6977 215.873 42.4967C215.023 32.2947 216.945 23.2667 221.263 17.1747C224.546 12.5437 232.881 7.1367 238.785 5.8087C244.228 4.5847 253.518 4.4787 255.323 5.6217ZM302.74 36.7477C305.749 39.1137 306.05 41.2657 303.818 44.4517C300.869 48.6637 293.375 46.1197 293.375 40.9067C293.375 39.4127 297.8 34.6747 299.195 34.6747C299.696 34.6747 301.291 35.6077 302.74 36.7477ZM296.575 37.8747C293.097 41.3527 298.089 47.8167 301.845 44.6997C304.829 42.2237 303.12 36.6747 299.375 36.6747C298.495 36.6747 297.235 37.2147 296.575 37.8747ZM376.375 39.6747C376.375 41.6197 375.708 41.6747 351.934 41.6747C328.382 41.6747 325.252 41.2997 326.875 38.6747C327.26 38.0517 336.719 37.6747 351.934 37.6747C375.708 37.6747 376.375 37.7297 376.375 39.6747ZM478.375 183.802V287.93L471.125 296.501C467.138 301.216 459.875 309.342 454.987 314.56C450.098 319.777 445.206 326.065 444.114 328.531C439.957 337.931 443.639 352.34 453.305 364.499C458.394 370.899 464.86 375.214 472.625 377.391L478.375 379.003V383.127C478.375 386.739 477.786 387.816 473.625 391.812C466.069 399.069 434.522 426.675 433.785 426.675C433.418 426.675 433.276 419.813 433.471 411.425C433.876 393.981 433.258 355.537 432.652 360.425C432.353 362.834 431.747 363.675 430.312 363.675C428.913 363.675 428.375 362.981 428.375 361.175C428.375 358.985 427.942 358.675 424.875 358.675C421.808 358.675 421.375 358.985 421.375 361.175V363.675H399.375H377.375V359.175C377.375 354.699 377.356 354.675 373.875 354.675C370.751 354.675 370.363 354.971 370.26 357.425C370.196 358.937 370.084 360.85 370.01 361.675C369.895 362.949 366.6 363.216 348.125 363.445C326.883 363.708 326.375 363.667 326.375 361.695C326.375 360.005 325.721 359.675 322.375 359.675C319.042 359.675 318.375 360.008 318.375 361.675C318.375 363.64 317.708 363.675 280.445 363.675H242.514L242.081 361.425C241.842 360.187 241.622 388.2 241.59 423.675C241.559 459.15 241.76 487.613 242.037 486.925C242.436 485.937 262.446 485.675 337.385 485.675C426.871 485.675 432.254 485.774 432.686 487.425C432.937 488.387 433.195 482.673 433.259 474.725L433.375 460.276L438.345 465.852C451.028 480.082 468.037 484.345 483.875 477.262C490.726 474.198 490.48 474.483 476.834 485.401C463.961 495.701 460.816 499.358 458.749 506.429C456.698 513.451 457.831 522.245 461.763 529.825L464.279 534.675H345.327H226.375L226.299 398.425C226.257 323.488 226.37 259.025 226.549 255.175C226.995 245.605 226.96 217.302 226.496 211.175C226.287 208.425 226.175 177.713 226.246 142.925L226.375 79.6747H352.375H478.375V183.802ZM242.038 155.835C241.673 177.377 241.375 202.321 241.375 211.265C241.375 225.913 241.201 227.574 239.625 227.986C237.114 228.642 242.718 228.679 347.125 228.698L441.375 228.715V231.136C441.375 232.468 441.825 233.835 442.375 234.175C443.038 234.585 443.352 214.786 443.307 175.484C443.258 132.158 442.948 116.78 442.157 118.42L441.074 120.665L342.974 120.925L244.875 121.185L343.008 121.43C435.549 121.661 441.163 121.775 441.508 123.425C441.71 124.387 441.73 148.238 441.552 176.425L441.229 227.675H436.302C432.349 227.675 431.337 227.329 431.185 225.925C431.08 224.963 430.925 213.15 430.841 199.675C430.588 159.269 430.599 159.483 428.781 159.852C427.365 160.139 427.17 163.904 427.031 193.675L426.875 227.175H422.875H418.875L418.691 221.175C418.59 217.875 418.477 212.33 418.441 208.852C418.384 203.387 418.137 202.574 416.625 202.865C414.568 203.261 414.659 202.67 414.5 216.675L414.375 227.675H410.388H406.402L406.138 193.938C405.895 162.724 405.744 160.177 404.125 159.865C402.486 159.55 402.375 161.689 402.375 193.602V227.675H398.375H394.375V209.175C394.375 191.342 394.447 190.675 396.375 190.675C397.708 190.675 398.375 190.008 398.375 188.675C398.375 187.227 397.708 186.675 395.958 186.675C394.629 186.675 393.313 186.113 393.034 185.425C392.639 184.449 392.338 184.442 391.664 185.39C390.79 186.619 377.604 189.993 349.375 196.211C340.85 198.089 331.467 200.17 328.523 200.835C325.579 201.499 322.94 202.646 322.657 203.383C322.307 204.294 321.142 204.536 319.009 204.138C316.464 203.664 297.991 207.551 285.375 211.215C284.165 211.567 283.877 210.547 283.886 205.942L283.896 200.233L287.886 199.106L291.875 197.979L292.375 202.577C292.723 205.775 293.332 207.175 294.375 207.175C295.489 207.175 295.955 205.76 296.186 201.681C296.382 198.206 297.025 195.891 297.936 195.381C299.991 194.231 299.72 192.947 297.055 191.201C294.921 189.803 294.038 189.916 286.083 192.605C275.786 196.085 266.936 201.148 265.451 204.408C264.539 206.409 264.636 206.718 266.1 206.468C267.527 206.225 267.808 206.944 267.74 210.656C267.653 215.345 266.529 216.302 260.782 216.575C258.725 216.673 258.691 216.349 258.782 197.676C258.872 179.314 258.808 178.678 256.875 178.676C254.942 178.674 254.875 179.34 254.875 198.424V218.175L250.125 219.093C245.776 219.933 245.375 220.252 245.375 222.878C245.375 225.403 245.606 225.622 247.309 224.71C248.373 224.141 250.656 223.675 252.383 223.675C254.832 223.675 255.449 224.059 255.189 225.425C254.932 226.778 253.666 227.244 249.616 227.477L244.375 227.78L244.15 208.477C244.026 197.861 243.913 173.126 243.9 153.511C243.886 133.896 243.611 117.582 243.288 117.257C242.964 116.932 242.402 134.292 242.038 155.835ZM448.822 122.116C447.283 124.464 447.276 124.875 448.733 127.099C451.241 130.926 454.177 131.327 457.242 128.263C459.73 125.775 459.786 125.498 458.339 122.907C456.164 119.015 451.128 118.596 448.822 122.116ZM353.037 154.426C353.307 195.452 353.228 193.675 354.768 193.675C355.534 193.675 356.346 193.113 356.571 192.425C356.797 191.738 357.118 177.338 357.286 160.425L357.591 129.675L355.233 129.676L352.875 129.677L353.037 154.426ZM448.822 147.116C447.266 149.491 447.263 149.855 448.783 152.175C450.837 155.309 455.301 155.52 457.937 152.607C459.645 150.719 459.678 150.304 458.311 147.857C456.164 144.014 451.113 143.62 448.822 147.116ZM306.625 156.393C305.693 156.727 305.375 161.057 305.375 173.389V189.937L301.739 189.347L298.104 188.757L301.856 192.095C305.256 195.12 305.571 195.824 305.211 199.595C304.857 203.311 305.032 203.725 306.845 203.466C308.343 203.251 308.959 202.297 309.196 199.822C309.469 196.967 309.841 196.538 311.696 196.933C312.894 197.189 316.682 197.999 320.112 198.734C324.424 199.657 327.203 199.771 329.112 199.102C332.561 197.895 333.417 194.181 330.427 193.399C327.913 192.742 327.798 193.49 330.125 195.362C331.687 196.618 331.499 196.701 328.375 196.138C326.45 195.791 321.387 194.574 317.125 193.434L309.375 191.361V174.077C309.375 164.571 309.038 156.602 308.625 156.369C308.212 156.136 307.313 156.147 306.625 156.393ZM559.916 158.555C568.194 162.315 572.526 171.012 570.388 179.579C568.762 186.095 563.48 195.128 554.69 206.422C539.954 225.354 509.655 258.29 504.051 261.465C501.754 262.767 499.087 264.542 498.125 265.409C496.463 266.906 496.375 265.641 496.375 240.146V213.307L501.002 217.934C505.997 222.929 516.731 229.051 522.375 230.123C525.063 230.634 523.904 229.713 517.382 226.156C512.71 223.607 506.093 219.419 502.677 216.849L496.466 212.175L496.421 201.036C496.368 188.239 495.72 189.491 507.707 179.228C517.872 170.526 531.243 161.848 538.842 159.023C546.312 156.245 554.434 156.064 559.916 158.555ZM279.877 159.672C279.538 160.22 279.348 167.666 279.454 176.219C279.624 189.926 279.838 191.733 281.261 191.463C283.258 191.085 284.013 183.682 283.561 168.925C283.319 161.041 282.929 158.675 281.87 158.675C281.113 158.675 280.216 159.124 279.877 159.672ZM449.84 171.119C447.424 173.535 447.375 175.481 449.653 178.425C451.114 180.314 455.125 179.925 457.375 177.675C459.964 175.086 459.896 174.105 456.92 171.13C453.855 168.064 452.896 168.063 449.84 171.119ZM340.876 173.674C340.499 174.284 340.512 179.506 340.905 185.279C341.514 194.208 341.864 195.728 343.248 195.461C344.633 195.194 344.875 193.514 344.875 184.175C344.875 174.755 344.641 173.157 343.218 172.883C342.307 172.708 341.253 173.064 340.876 173.674ZM291.998 177.476C291.689 177.977 291.712 180.722 292.05 183.576C292.528 187.613 293.021 188.697 294.27 188.457C296.642 188 296.594 177.341 294.218 176.883C293.307 176.708 292.308 176.974 291.998 177.476ZM183.871 188.982C183.866 200.475 182.327 204.965 174.378 216.67C172.078 220.058 170.506 223.132 170.885 223.502C172.086 224.674 178.366 216.473 182.19 208.738C185.712 201.613 185.875 200.832 185.875 191.032C185.875 185.393 185.425 180.331 184.875 179.784C184.209 179.12 183.874 182.189 183.871 188.982ZM390.149 209.925L389.875 227.175L386.125 227.485L382.375 227.796V221.935C382.375 218.59 382.911 215.531 383.625 214.808C384.627 213.792 384.527 213.283 383.125 212.247C381.948 211.378 381.375 209.598 381.375 206.815C381.375 203.342 381.053 202.675 379.375 202.675C377.756 202.675 377.375 203.342 377.375 206.175C377.375 210.029 376.595 210.345 371.48 208.562C368.424 207.496 368.296 207.238 368.511 202.536C368.696 198.478 369.095 197.543 370.805 197.166C371.943 196.915 376.475 195.852 380.875 194.803C385.275 193.755 389.223 192.847 389.649 192.786C390.074 192.725 390.299 200.437 390.149 209.925ZM449.83 196.13C446.854 199.105 446.786 200.086 449.375 202.675C452.139 205.439 455.96 205.238 457.935 202.224C459.932 199.176 459.115 196.333 455.809 194.827C452.509 193.323 452.671 193.288 449.83 196.13ZM265.834 195.742C265.471 196.328 265.392 197.025 265.657 197.29C266.418 198.051 271.375 196.557 271.375 195.567C271.375 194.305 266.629 194.455 265.834 195.742ZM365.375 202.742C365.375 207.104 365.809 206.933 359.375 205.108C356.828 204.385 356.638 200.014 359.125 199.364C364.424 197.979 365.375 198.493 365.375 202.742ZM354.375 202.595C354.375 203.037 353.15 203.163 351.653 202.877C349.235 202.415 349.151 202.277 350.903 201.641C352.989 200.884 354.375 201.265 354.375 202.595ZM279.75 204.8C281.001 211.054 280.599 212.38 277.25 213.05C271.527 214.195 271.375 214.073 271.375 208.342C271.375 205.408 271.675 202.708 272.042 202.342C272.408 201.975 274.152 201.675 275.917 201.675C278.71 201.675 279.206 202.079 279.75 204.8ZM340.726 215.372C341.086 221.256 340.986 226.464 340.505 226.945C340.023 227.427 338.11 227.675 336.252 227.498L332.875 227.175L332.663 220.175C332.322 208.917 333.052 205.866 336.203 205.384C337.673 205.159 339.144 204.907 339.473 204.825C339.802 204.742 340.366 209.489 340.726 215.372ZM328.375 217.175V227.675H318.875H309.375V220.175C309.375 216.05 309.262 212.361 309.125 211.978C308.904 211.36 323.921 207.016 327.125 206.771C328.052 206.7 328.375 209.391 328.375 217.175ZM352.026 207.992C352.189 208.155 352.436 212.538 352.575 217.732L352.828 227.175L349.102 227.485L345.375 227.796V217.11V206.425L348.552 207.06C350.299 207.41 351.863 207.829 352.026 207.992ZM361.548 210.845L365.453 212.015L365.164 219.595L364.875 227.175L361.197 227.481L357.52 227.787L357.197 218.729C357.02 213.747 357.048 209.671 357.259 209.673C357.47 209.674 359.4 210.201 361.548 210.845ZM305.169 219.925L304.875 227.175H300.875H296.875L296.581 220.5C296.262 213.263 296.3 213.219 303.169 212.811C305.387 212.679 305.453 212.914 305.169 219.925ZM375.272 214.789C378.412 215.884 378.463 216.001 378.172 221.539L377.875 227.175L373.625 227.482L369.375 227.79V220.732C369.375 213.03 369.594 212.81 375.272 214.789ZM292.387 221.425C291.902 226.873 291.724 227.192 289.003 227.503C285.274 227.929 284.598 227.106 284.225 221.681C283.93 217.41 284.062 217.156 286.895 216.55C293.009 215.241 292.943 215.182 292.387 221.425ZM280.375 222.689C280.375 226.335 280.155 226.626 276.94 227.229C272.468 228.068 271.375 227.28 271.375 223.215C271.375 220.187 271.727 219.786 275.125 218.936C277.188 218.421 279.212 218.177 279.625 218.396C280.038 218.614 280.375 220.546 280.375 222.689ZM448.783 221.175C447.266 223.491 447.266 223.859 448.783 226.175C450.416 228.668 454.522 229.536 456.99 227.91C459.326 226.371 459.54 222.84 457.426 220.726C454.595 217.895 450.803 218.092 448.783 221.175ZM268.375 223.63C268.375 226.214 267.937 226.667 264.883 227.24C260.441 228.073 258.375 227.274 258.375 224.725C258.375 223.344 259.237 222.523 261.125 222.107C262.637 221.773 264.325 221.35 264.875 221.166C267.541 220.277 268.375 220.864 268.375 223.63ZM419.707 244.526C413.343 246.725 407.792 250.855 405.127 255.371C403.677 257.828 402.656 258.595 401.493 258.103C396.839 256.133 395.676 256.422 395.018 259.711C394.664 261.479 394.375 265.552 394.375 268.762C394.375 284.155 405.963 297.798 422.875 302.316C430.284 304.295 433.375 304.106 433.375 301.675C433.375 300.249 434.042 299.675 435.697 299.675C444.805 299.675 456.045 290.894 458.796 281.628C459.661 278.717 460.235 276.202 460.073 276.039C459.91 275.877 455.299 275.483 449.826 275.164C444.353 274.845 437.977 274.354 435.656 274.073L431.437 273.562L440.512 265.389L449.587 257.215L446.296 254.467C444.485 252.956 441.082 250.925 438.732 249.953C435.209 248.496 434.553 247.814 434.992 246.066C435.932 242.318 428.317 241.551 419.707 244.526ZM431.724 245.43C431.98 245.845 430.858 252.646 429.23 260.544C427.602 268.441 426.535 275.168 426.859 275.493C427.184 275.817 434.07 276.498 442.162 277.005C450.254 277.512 457.025 278.058 457.209 278.218C457.392 278.378 456.677 280.459 455.619 282.842C452.314 290.288 445.979 294.923 436.125 297.104C433.624 297.658 433.375 297.454 433.375 294.854C433.375 292.098 433.121 291.95 426.321 290.735C417.872 289.225 412.18 285.359 408.701 278.768C406.207 274.041 405.674 267.65 407.396 263.118C408.13 261.189 408.085 260.031 407.237 259.009C406.287 257.864 406.804 256.82 409.886 253.663C414.363 249.079 418.783 246.784 425.234 245.694C427.786 245.263 430.186 244.857 430.566 244.793C430.946 244.728 431.467 245.015 431.724 245.43ZM442.875 255.097C444.525 256.416 445.65 257.661 445.375 257.864C445.1 258.066 441.3 261.369 436.93 265.203C432.561 269.038 429.251 271.474 429.575 270.617C429.9 269.76 430.936 265.26 431.878 260.617C432.82 255.974 433.777 251.864 434.005 251.485C434.639 250.428 439.523 252.417 442.875 255.097ZM261.875 259.028C255.808 261.859 249.884 268.179 248.447 273.354C246.237 281.314 248.312 293.664 252.271 296.111C253.849 297.086 253.649 296.253 251.38 292.408C248.605 287.705 247.827 280.709 249.436 274.939C251.231 268.501 258.988 260.72 265.875 258.448C268.625 257.541 269.975 256.775 268.875 256.746C267.775 256.718 264.625 257.745 261.875 259.028ZM276.183 268.645L276.492 280.619L280.321 283.897C282.428 285.7 286.233 288.671 288.779 290.499L293.407 293.822L295.369 289.499C298.802 281.934 297.725 272.71 292.606 265.82C289.492 261.629 281.815 256.676 278.429 256.673L275.875 256.671L276.183 268.645ZM366.375 262.101C365 263.954 358.363 272.691 351.625 281.516C339.988 296.758 338.169 299.675 340.3 299.675C341.273 299.675 370.309 262.144 370.667 260.423C371.165 258.033 368.669 259.009 366.375 262.101ZM308.448 262.31C304.648 267.14 306.198 272.867 311.955 275.273C319.101 278.259 326.243 271.598 323.359 264.637C321.802 260.878 319.657 259.675 314.513 259.675C311.391 259.675 310.068 260.249 308.448 262.31ZM402.902 260.661C403.519 260.67 403.919 263.802 403.902 268.502C403.878 275.49 404.199 276.855 406.904 281.252C410.623 287.296 417.563 292.126 424.883 293.764C430.14 294.941 430.375 295.13 430.375 298.195C430.375 301.03 430.101 301.345 427.993 300.942C426.168 300.593 425.717 299.983 426.062 298.331C426.464 296.407 426.392 296.364 425.394 297.925C423.868 300.312 422.65 300.153 415.637 296.648C402.665 290.166 394.934 276.77 396.838 264.072C397.452 259.976 397.761 259.544 399.701 260.065C400.897 260.385 402.337 260.654 402.902 260.661ZM319.546 263.33C323.474 266.885 320.635 273.675 315.22 273.675C311.92 273.675 308.375 270.568 308.375 267.675C308.375 262.735 315.729 259.875 319.546 263.33ZM334.618 268.533C331.177 271.636 328.364 274.512 328.368 274.925C328.372 275.338 334.322 275.675 341.591 275.675H354.807L349.341 270.101C346.335 267.036 343.2 264.159 342.375 263.71C341.301 263.124 339.096 264.495 334.618 268.533ZM533.143 264.101C553.468 269.512 568.972 285.103 568.771 299.929C568.654 308.501 562.815 319.568 552.019 331.675C539.5 345.716 532.497 351.492 525.918 353.206C518.044 355.257 512.828 357.935 504.804 364.05C494.061 372.237 492.026 373.086 483.207 373.056C469.15 373.009 459.052 365.933 451.755 351.018C448.275 343.905 447.46 335.405 449.789 330.498C450.688 328.604 456.934 321.858 463.668 315.509C470.403 309.159 479.093 300.186 482.98 295.569C491.242 285.754 493.53 282.243 487.472 288.675C482.445 294.012 483.093 292.199 488.722 285.175C494.824 277.56 502.499 269.794 506.199 267.49C513.752 262.787 523.569 261.552 533.143 264.101ZM339.375 270.675C339.375 273.381 339.062 273.675 336.188 273.675H333.001L335.875 270.675C337.456 269.025 338.89 267.675 339.062 267.675C339.234 267.675 339.375 269.025 339.375 270.675ZM346.337 270.716L349.799 273.675H346.087C343.549 273.675 342.375 273.226 342.375 272.257C342.375 271.477 342.102 270.127 341.768 269.257C340.861 266.893 342.463 267.404 346.337 270.716ZM142.375 278.619C142.375 281.242 145.776 284.675 148.375 284.675C151.289 284.675 150.831 283.583 146.357 279.869C142.744 276.868 142.375 276.753 142.375 278.619ZM265.272 287.925C261.859 290.812 257.898 294.187 256.47 295.425L253.875 297.675L256.875 300.164C265.068 306.963 275.533 307.289 286.137 301.074L290.731 298.382L287.702 295.779C286.035 294.347 281.936 290.812 278.591 287.925C275.246 285.038 272.277 282.675 271.994 282.675C271.711 282.675 268.686 285.038 265.272 287.925ZM309.01 287.748C303.733 291.898 306.392 300.415 313.517 302.182C319.41 303.644 325.536 296.859 323.399 291.238C321.327 285.787 313.818 283.966 309.01 287.748ZM319.152 289.232C321.862 291.13 322.112 295.718 319.625 297.902C316.514 300.633 313.872 300.854 311.032 298.62C304.283 293.311 312.09 284.285 319.152 289.232ZM360.01 289.748C356.495 292.512 356.268 298.786 359.598 301.118C363.275 303.694 368.868 303.135 371.381 299.941C377.187 292.56 367.488 283.865 360.01 289.748ZM368.804 291.246C373.963 296.406 366.617 303.919 361.204 299.02C358.717 296.77 358.902 293.12 361.598 291.232C364.427 289.25 366.812 289.255 368.804 291.246ZM506.375 293.726C506.375 294.343 508.761 297.172 511.678 300.012C516.802 305.002 524.202 309.67 529.375 311.177C531.722 311.861 531.662 311.682 528.397 308.258C525.126 304.826 513.596 296.386 508.625 293.783C506.996 292.93 506.375 292.914 506.375 293.726ZM134.375 301.777C134.375 302.215 135.982 303.799 137.947 305.298C142.176 308.523 150.717 309.704 153.686 307.473C155.289 306.269 154.859 306.103 149.959 306.032C146.201 305.978 142.806 305.153 139.398 303.467C136.635 302.099 134.375 301.339 134.375 301.777ZM211.36 333.327L211.375 356.479L208.125 358.547C205.744 360.062 204.798 360.27 204.586 359.325C204.427 358.615 205.246 349.291 206.405 338.605C207.565 327.918 208.773 316.554 209.09 313.351C210.28 301.324 211.345 310.691 211.36 333.327ZM483.792 309.062C482.096 309.819 478.459 312.436 475.709 314.878C472.96 317.32 467.42 321.976 463.398 325.226C454.641 332.301 453.051 335.28 454.846 341.244C457.302 349.404 465.973 359.389 474.29 363.632C480.123 366.607 487.531 366.335 494.089 362.903C506.506 356.406 515.779 344.748 515.74 335.686C515.677 321.271 495.016 304.053 483.792 309.062ZM498.041 314.242C505.938 318.827 512.648 328.726 512.648 335.793C512.648 346.371 494.739 362.691 483.158 362.666C473.623 362.645 460.641 351.063 457.371 339.66C456.333 336.04 457.823 333.742 464.875 328.088C468.175 325.442 473.575 320.96 476.875 318.127C480.175 315.294 483.775 312.456 484.875 311.82C487.54 310.281 492.922 311.271 498.041 314.242ZM245.375 332.675V335.675H324.375H403.375V332.675V329.675H324.375H245.375V332.675ZM245.375 342.675V345.675H308.375H371.375V342.675V339.675H308.375H245.375V342.675ZM546.889 360.76C552.863 363.536 563.257 373.564 566.258 379.446C573.672 393.977 572.224 409.805 562.465 420.919C557.248 426.861 534.416 442.592 511.598 455.965C508.308 457.893 504.325 460.274 502.746 461.256C501.167 462.238 500.325 462.572 500.875 461.997C501.425 461.422 508.477 456.629 516.547 451.345C524.616 446.061 531.548 441.204 531.951 440.552C532.805 439.169 533.643 438.69 518.875 448.028C500.103 459.898 480.082 471.899 476.686 473.318C474.9 474.064 470.785 474.675 467.541 474.675C459.772 474.675 448.975 469.485 444.013 463.365C437.916 455.844 435.957 450.946 435.914 443.106C435.862 433.614 437.766 430.904 454.813 416.21C462.268 409.784 476.442 397.17 486.311 388.179C510.512 366.13 517.422 361.138 527.109 358.704C532.784 357.279 541.304 358.164 546.889 360.76ZM437.613 359.837C435.909 361.541 436.054 368.163 437.827 369.635C441.575 372.746 445.715 367.4 443.798 361.925C442.745 358.92 439.594 357.856 437.613 359.837ZM441.375 364.817C441.375 366.792 440.941 367.697 440.125 367.425C438.652 366.935 437.966 364.184 438.783 362.053C439.692 359.685 441.375 361.48 441.375 364.817ZM318.375 395.675C318.375 415.675 318.02 426.675 317.375 426.675C316.733 426.675 316.375 417.008 316.375 399.675V372.675H312.375H308.375L308.399 378.925C308.412 382.363 308.173 399.912 307.868 417.925C307.564 435.938 307.547 450.675 307.831 450.675C308.114 450.675 309.565 448.762 311.053 446.425C312.542 444.088 314.437 441.611 315.264 440.921C316.431 439.948 316.5 439.4 315.571 438.471C313.701 436.601 314.166 431.884 316.446 429.604C317.955 428.095 319.514 427.62 322.196 427.851L325.875 428.169L326.139 396.422L326.403 364.675H347.889H369.375V414.175C369.375 446.508 369.028 463.675 368.375 463.675C367.725 463.675 367.375 449.842 367.375 424.175V384.675H363.41H359.445L359.16 394.925C359.003 400.563 359.001 417.389 359.156 432.316C359.425 458.354 359.516 459.479 361.406 459.973C364.141 460.688 364.12 466.193 361.375 467.907C359.787 468.899 359.375 470.239 359.375 474.416V479.675H363.375H367.375V472.675C367.375 467.647 367.736 465.675 368.658 465.675C369.617 465.675 369.841 467.441 369.545 472.675L369.149 479.675H373.262H377.375L377.385 463.425C377.39 454.488 377.502 428.725 377.635 406.175L377.875 365.175L399.533 364.906L421.19 364.637L421.197 413.656C421.203 447.367 420.875 462.675 420.15 462.675C419.007 462.675 416.458 459.708 416.407 458.318C416.389 457.847 417.05 457.72 417.875 458.037C418.789 458.387 419.375 458.038 419.375 457.144C419.375 456.272 418.427 455.675 417.044 455.675C415.581 455.675 414.215 454.744 413.375 453.175C412.137 450.862 410.221 449.698 410.493 451.425C411.012 454.706 410.17 464.675 409.375 464.675C408.131 464.675 408.113 457.51 409.344 452.203C410.108 448.907 409.92 447.674 408.238 444.953C407.124 443.15 405.816 441.675 405.332 441.675C404.035 441.675 401.382 451.248 400.689 458.425C400.357 461.863 399.701 464.675 399.23 464.675C398.76 464.675 398.375 463.865 398.375 462.875C398.375 461.885 397.861 460.561 397.233 459.933C396.383 459.083 396.376 457.309 397.206 452.983C398.233 447.626 398.352 445.635 398.237 435.675C398.214 433.75 398.221 427.045 398.252 420.775C398.282 414.504 398.071 408.992 397.782 408.525C397.493 408.057 395.709 407.675 393.816 407.675H390.375V443.675V479.675H394.444H398.513L398.27 472.983C398.11 468.558 398.425 466.158 399.201 465.9C400.026 465.625 400.375 467.615 400.375 472.592V479.675H404.375H408.375V472.592C408.375 467.615 408.724 465.625 409.549 465.9C410.325 466.158 410.64 468.558 410.48 472.983L410.237 479.675H414.306H418.375V472.175C418.375 466.469 418.705 464.675 419.753 464.675C420.81 464.675 421.102 466.369 421.003 471.925L420.875 479.175H424.875H428.875L429.195 464.675L429.515 450.175L431.195 454.675C432.511 458.201 432.808 461.828 432.566 471.425L432.257 483.675H337.816H243.375L243.348 436.425C243.334 410.438 243.306 384 243.287 377.675C243.268 371.35 243.28 365.838 243.314 365.425C243.347 365.012 260.25 364.675 280.875 364.675H318.375V395.675ZM432.346 397.557C432.371 423.163 432.075 431.158 431.011 433.689L429.645 436.939L429.149 431.057C428.876 427.822 428.577 411.563 428.485 394.925C428.321 365.292 428.358 364.675 430.316 364.675C432.273 364.675 432.315 365.359 432.346 397.557ZM211.375 371.508C211.375 374.717 211.082 377.635 210.724 377.993C210.063 378.654 198.375 372.669 198.375 371.67C198.375 371.142 209.119 365.97 210.625 365.773C211.038 365.719 211.375 368.3 211.375 371.508ZM189.785 378.496C185.079 381.909 179.375 388.242 179.375 390.054C179.375 390.774 182.802 388.036 186.99 383.968C195.068 376.123 196.25 373.807 189.785 378.496ZM380.323 389.865C380.295 390.035 380.098 410.337 379.885 434.979L379.499 479.784L383.687 479.479L387.875 479.175V434.675V390.175L384.125 389.865C382.063 389.694 380.352 389.694 380.323 389.865ZM503.375 393.335C503.375 397.944 511.634 407.689 518.588 411.285C524.045 414.107 523.576 413.422 509.625 398.204C505.095 393.262 503.375 391.922 503.375 393.335ZM328.263 413.425C328.202 424.287 328.015 434.525 327.849 436.175C327.593 438.72 328.217 439.666 331.961 442.411L336.375 445.647V419.661V393.675H332.375H328.375L328.263 413.425ZM437.946 398.246C435.493 400.7 435.879 407.339 438.558 408.773C440.417 409.768 441.011 409.608 442.558 407.697C444.786 404.946 444.878 401.838 442.818 398.898C440.973 396.263 440.053 396.14 437.946 398.246ZM441.375 403.175C441.375 405.619 440.923 406.675 439.875 406.675C438.346 406.675 437.69 401.693 439.042 400.342C440.536 398.847 441.375 399.866 441.375 403.175ZM351.937 407.625C349.018 409.549 349 409.619 349.13 418.868C349.201 423.987 349.286 434.609 349.317 442.473L349.375 456.772L352.615 458.134C354.397 458.883 356.197 459.285 356.615 459.027C357.033 458.768 357.375 446.659 357.375 432.116C357.375 403.46 357.487 403.966 351.937 407.625ZM498.375 408.479C498.375 412.301 503.724 420.826 509.164 425.675C512.25 428.425 515.429 430.675 516.23 430.675C517.502 430.675 517.501 430.455 516.226 428.925C515.423 427.963 512.497 424.475 509.722 421.175C506.948 417.875 503.425 413.262 501.894 410.925C498.78 406.172 498.375 405.891 498.375 408.479ZM400.378 417.925L400.381 428.175L404.378 428.224L408.375 428.272V417.974V407.675H404.375H400.375L400.378 417.925ZM469.839 413.254C467.261 415.223 460.139 420.093 454.013 424.078C447.887 428.062 442.2 432.146 441.375 433.152C438.887 436.188 439.461 444.46 442.576 450.464C448.24 461.381 455.152 467.675 461.479 467.675C469.13 467.675 484.972 456.506 489.736 447.752C495.732 436.736 493.73 424.187 484.439 414.548C478.678 408.57 476.256 408.356 469.839 413.254ZM342.125 413.101L338.375 414.028L338.393 430.601L338.411 447.175L342.453 450.532C344.676 452.378 346.58 453.728 346.685 453.532C346.789 453.336 346.65 443.95 346.375 432.675L345.875 412.175L342.125 413.101ZM482.265 416.203C492.442 427.793 492.779 440.857 483.171 451.28C477.84 457.064 467.321 463.738 462.523 464.382C458.947 464.862 458.157 464.515 453.91 460.6C445.913 453.229 441.042 442.264 443.339 436.804C444.046 435.123 448.676 431.385 456.184 426.437C462.64 422.18 469.487 417.361 471.399 415.727C475.999 411.795 478.491 411.905 482.265 416.203ZM265.593 448.425L265.875 479.175L270.125 479.482L274.375 479.79V472.732C274.375 468.694 274.803 465.675 275.375 465.675C275.946 465.675 276.375 468.675 276.375 472.675V479.675H280.375H284.375V472.292C284.375 465.598 284.176 464.856 282.244 464.351C280.274 463.836 280.236 463.671 281.744 462.163C284.321 459.586 283.765 457.675 280.438 457.675C277.872 457.675 277.462 458.075 277.188 460.848C277.016 462.593 276.313 464.206 275.625 464.431C274.677 464.742 274.326 461.857 274.172 452.508C274.061 445.725 273.87 436.8 273.749 432.675C273.627 428.55 273.493 423.488 273.451 421.425C273.376 417.724 273.322 417.675 269.343 417.675H265.312L265.593 448.425ZM297.375 439.675C297.375 449.575 297.585 457.675 297.841 457.675C298.097 457.675 299.897 456.917 301.841 455.99L305.375 454.305V437.99V421.675H301.375H297.375V439.675ZM410.725 426.425C411.024 429.037 411.556 432.775 411.908 434.731C412.376 437.329 412.127 438.636 410.984 439.585C409.599 440.734 409.94 441.561 413.955 446.779C416.45 450.022 418.578 452.676 418.683 452.676C418.789 452.677 418.74 445.702 418.576 437.176L418.277 421.675H414.23H410.182L410.725 426.425ZM325.939 430.968C326.315 431.954 326.874 432.509 327.182 432.201C327.49 431.894 327.183 431.087 326.499 430.408C325.511 429.428 325.397 429.543 325.939 430.968ZM318.982 442.257C318.648 443.127 318.375 451.929 318.375 461.817V479.796L322.125 479.485L325.875 479.175L326.375 461.347C326.65 451.542 326.515 442.88 326.075 442.097C324.981 440.151 319.745 440.269 318.982 442.257ZM328.089 455.425C328.206 461.337 328.319 469.213 328.339 472.925L328.375 479.675H332.375H336.375V465.248V450.821L332.647 447.748C330.597 446.058 328.684 444.675 328.397 444.675C328.11 444.675 327.971 449.512 328.089 455.425ZM312.588 451.175C310.844 453.65 308.957 455.675 308.396 455.675C307.758 455.675 307.375 460.18 307.375 467.675V479.675H311.83H316.285L316.292 463.175C316.296 454.1 316.178 446.675 316.029 446.675C315.881 446.675 314.333 448.7 312.588 451.175ZM338.996 453.479C338.72 453.925 338.473 460.003 338.446 466.983L338.398 479.675H342.387H346.375V475.322C346.375 472.927 346.629 468.315 346.939 465.072L347.503 459.175L343.501 455.92C341.3 454.13 339.273 453.032 338.996 453.479ZM302.436 457.776C301.094 458.312 298.807 458.489 297.353 458.17C294.006 457.435 286.337 459.118 285.287 460.818C284.275 462.454 286.07 464.675 288.404 464.675C289.654 464.675 290.041 464.116 289.699 462.804C289.342 461.44 289.883 460.764 291.699 460.308C293.069 459.965 294.907 459.408 295.784 459.072C296.661 458.735 296.028 459.906 294.377 461.673C292.726 463.44 291.375 465.483 291.375 466.211C291.375 466.94 290.363 467.68 289.125 467.855C287.132 468.139 286.841 468.831 286.575 473.925L286.275 479.675H290.279H294.284L294.579 473.005C294.767 468.782 295.334 466.183 296.125 465.921C297.046 465.617 297.375 467.371 297.375 472.592V479.675H301.375H305.375V468.175C305.375 461.85 305.262 456.704 305.125 456.738C304.988 456.773 303.777 457.24 302.436 457.776ZM545.468 459.986C550.917 462.843 558.343 472.339 561.393 480.351C564.073 487.39 565.059 498.073 563.472 502.88C561.416 509.111 556.845 515.108 551.176 519.012C544.82 523.39 525.3 531.172 524.386 529.693C524.035 529.124 519.059 530.401 512.331 532.787C487.902 541.451 485.359 541.949 479.02 539.3C466.317 533.992 459.128 515.005 465.516 503.637C467.059 500.893 473.608 494.642 484.705 485.323C506.648 466.895 512.281 462.831 519.719 460.067C528.394 456.843 539.407 456.808 545.468 459.986ZM348.75 464.8C349.094 466.519 349.375 470.596 349.375 473.86V479.796L353.125 479.485C355.364 479.3 356.835 478.671 356.775 477.925C356.72 477.238 356.608 474.75 356.525 472.398C356.413 469.19 355.639 467.315 353.431 464.898C349.621 460.726 347.928 460.691 348.75 464.8ZM356.711 463.242C356.38 464.104 356.544 465.244 357.075 465.775C358.511 467.211 361.375 465.741 361.375 463.568C361.375 461.224 357.587 460.96 356.711 463.242ZM245.375 472.175V479.675H249.375H253.375V472.675C253.375 468.675 253.804 465.675 254.375 465.675C254.946 465.675 255.375 468.675 255.375 472.675V479.675H259.296H263.217L263.546 472.173L263.875 464.67L254.625 464.673L245.375 464.675V472.175ZM437.575 478.875C435.881 480.569 436.059 488.168 437.827 489.635C440.357 491.735 442.742 490.419 443.693 486.401C445.085 480.514 440.983 475.467 437.575 478.875ZM441.21 484.731C440.697 488.234 438.375 488.393 438.375 484.925C438.375 483.321 438.683 481.701 439.058 481.325C440.211 480.172 441.564 482.313 441.21 484.731ZM509.375 483.215C509.375 487.801 524.751 504.633 526.94 502.443C527.429 501.955 510.744 482.675 509.832 482.675C509.581 482.675 509.375 482.918 509.375 483.215ZM482.254 494.146C469.514 502.809 468.865 503.607 468.918 510.532C468.951 514.977 469.677 517.513 472.334 522.475C477.706 532.509 483.129 534.882 491.233 530.747C495.884 528.375 501.817 521.947 503.852 517.075C505.92 512.126 505.756 503.107 503.508 498.175C500.888 492.427 496.577 487.675 493.984 487.675C492.767 487.675 487.488 490.587 482.254 494.146ZM499.187 496.675C502.219 501.691 502.481 502.757 502.168 508.797C501.754 516.77 498.387 522.43 491.429 526.851C485.105 530.869 482.304 530.579 477.916 525.452C472.437 519.051 470.155 509.362 473.116 505.077C475.016 502.328 492.058 490.713 493.869 490.933C495.082 491.08 497.167 493.331 499.187 496.675ZM521.575 547.36C512.94 555.437 503.724 564.096 501.094 566.603L496.314 571.16L496.594 557.75L496.875 544.339L501.243 542.884C505.499 541.467 508.214 541.757 514.979 544.353C517.55 545.34 516.41 543.012 513.723 541.788C510.315 540.235 511.482 539.29 518.718 537.741C521.932 537.053 526.882 535.664 529.718 534.655C532.554 533.647 535.415 532.788 536.075 532.748C536.736 532.708 530.211 539.283 521.575 547.36ZM362.947 555.165C370.731 559.726 374.371 570.953 370.824 579.457C364.655 594.248 344.816 596.549 335.41 583.565C329.561 575.49 330.492 565.506 337.773 558.225C344.724 551.273 354.318 550.107 362.947 555.165ZM345.875 556.177C337.882 559.003 333.004 568.156 335.339 575.948C339.984 591.453 360.183 593.773 367.398 579.631C372.317 569.988 367.201 558.665 356.594 555.719C351.861 554.405 350.754 554.452 345.875 556.177ZM163.054 610.475C171.685 618.418 185.667 624.018 215.997 631.68C237.716 637.167 247.296 640.833 257.749 647.657C270.2 655.785 289.746 676.431 300.59 692.909C306.732 702.241 308.169 701.608 302.846 691.915C294.397 676.532 273.73 653.871 259.957 644.887C248.674 637.527 239.565 634.041 217.375 628.59C187.2 621.179 174.215 616.611 163.497 609.636L158.875 606.629L163.054 610.475ZM390.625 616.425C372.888 616.578 343.863 616.578 326.125 616.425C308.388 616.271 322.9 616.146 358.375 616.146C393.85 616.146 408.363 616.271 390.625 616.425ZM309.382 703.481C309.386 703.863 310.99 705.265 312.946 706.598C318.206 710.18 326.127 710.602 332.458 707.636C335.159 706.371 337.194 705.161 336.98 704.946C336.765 704.732 334.029 705.301 330.898 706.211C324.62 708.036 320.488 707.664 313.625 704.652C311.288 703.627 309.378 703.1 309.382 703.481Z" fill="black"/>
</svg>
